# AST/ASF file generated using VICON BodyLanguage
# -----------------------------------------------
:version 1.10
:name VICON
:units
  mass 1.0
  length 0.45
  angle deg
:documentation
   .ast/.asf automatically generated from VICON data using
   VICON BodyBuilder and BodyLanguage model FoxedUp or BRILLIANT.MOD
:root
   order TX TY TZ RX RY RZ
   axis XYZ
   position 0 0 0  
   orientation 0 0 0 
:bonedata
  begin
     id 1 
     name lhipjoint
     direction 0.661853 -0.702389 0.261917 
     length 2.64193 
     axis 0 0 0  XYZ
  end
  begin
     id 2 
     name lfemur
     direction 0.34202 -0.939693 0  
     length 7.01722  
     axis 0 0 20  XYZ
    dof rx ry rz
    limits (-160.0 20.0)
           (-70.0 70.0)
           (-60.0 70.0)
  end
  begin
     id 3 
     name ltibia
     direction 0.34202 -0.939693 0   
     length 8.25008   
     axis 0 0 20   XYZ
    dof rx
    limits (-10.0 170.0)
  end
  begin
     id 4 
     name lfoot
     direction 0.0709916 -0.195048 0.978221   
     length 2.31941   
     axis -90 7.62852e-016 20   XYZ
    dof rx rz
    limits (-45.0 90.0)
           (-70.0 20.0)
  end
  begin
     id 5 
     name ltoes
     direction 1.53586e-011 -4.22017e-011 1   
     length 1.16486   
     axis -90 7.62852e-016 20   XYZ
    dof rx
    limits (-90.0 20.0)
  end
  begin
     id 6 
     name rhipjoint
     direction -0.638185 -0.721362 0.268992   
     length 2.57244  
     axis 0 0 0  XYZ 
  end
  begin
     id 7 
     name rfemur
     direction -0.34202 -0.939693 0   
     length 7.07017   
     axis 0 0 -20   XYZ
    dof rx ry rz
    limits (-160.0 20.0)
           (-70.0 70.0)
           (-70.0 60.0)
  end
  begin
     id 8 
     name rtibia
     direction -0.34202 -0.939693 0   
     length 8.20386   
     axis 0 0 -20   XYZ
    dof rx
    limits (-10.0 170.0)
 end
 begin
     id 9 
     name rfoot
     direction -0.0822429 -0.225961 0.970658   
     length 2.32215  
     axis -90 -7.62852e-016 -20   XYZ
    dof rx rz
    limits (-45.0 90.0)
           (-20.0 70.0)
  end
  begin
     id 10 
     name rtoes
     direction -1.53597e-011 -4.21689e-011 1   
     length 1.16333   
     axis -90 -7.62852e-016 -20   XYZ
    dof rx
    limits (-90.0 20.0)
  end
  begin
     id 11 
     name lowerback
     direction -0.0131557 0.998589 -0.0514484   
     length 2.14993   
     axis 0 0 0   XYZ
    dof rx ry rz
    limits (-20.0 45.0)
           (-30.0 30.0)
           (-30.0 30.0)
  end
  begin
     id 12 
     name upperback
     direction -0.000776481 0.999993 0.00352685   
     length 2.15301   
     axis 0 0 0   XYZ
    dof rx ry rz
    limits (-20.0 45.0)
           (-30.0 30.0)
           (-30.0 30.0)
  end
  begin
     id 13 
     name thorax
     direction 0.00438186 0.999609 0.0276143   
     length 2.15424   
     axis 0 0 0   XYZ
    dof rx ry rz
    limits (-20.0 45.0)
           (-30.0 30.0)
           (-30.0 30.0)
  end
  begin
     id 14 
     name lowerneck
     direction -0.0488006 0.998094 0.0377807   
     length 1.90481   
     axis 0 0 0   XYZ
    dof rx ry rz
    limits (-20.0 45.0)
           (-30.0 30.0)
           (-30.0 30.0)
  end
  begin
     id 15 
     name upperneck
     direction 0.0443769 0.990702 -0.12861   
     length 1.91305   
     axis 0 0 0   XYZ
    dof rx ry rz
    limits (-20.0 45.0)
           (-30.0 30.0)
           (-30.0 30.0)
  end
  begin
     id 16
     name head
     direction 0.0165599 0.998647 -0.0492982  
     length 1.92369  
     axis 0 0 0   XYZ
    dof rx ry rz
    limits (-20.0 45.0)
           (-30.0 30.0)
           (-30.0 30.0)
  end
  begin
     id 17 
     name lclavicle
     direction 0.911936 0.410197 -0.0105506  
     length 3.52622  
     axis 0 0 0   XYZ
    dof ry rz
    limits (-20.0 10.0)
           (0.0 20.0)
  end
  begin
     id 18 
     name lhumerus
     direction 1 -4.48974e-011 -2.48591e-028   
     length 5.47651   
     axis 180 -30 -90   XYZ
    dof rx ry rz
    limits (-60.0 90.0)
           (-90.0 90.0)
           (-90.0 90.0)
  end
  begin
     id 19
     name lradius
     direction 1 -4.48938e-011 -4.40099e-027   
     length 3.09058   
     axis 180 -30 -90   XYZ
    dof rx
    limits (-10.0 170.0)
  end
  begin
     id 20
     name lwrist
     direction 1 -4.49042e-011 -2.99852e-027   
     length 1.54529   
     axis 1.95339e-015 90 90   XYZ
    dof ry
    limits (-180.0 0.0)
 end
  begin
     id 21 
     name lhand
     direction 1 -4.48815e-011 -5.98193e-027   
     length 0.771611   
     axis 3.82337e-015 90 90   XYZ
    dof rx rz
    limits (-90.0 90.0)
           (-45.0 45.0)
  end
  begin
     id 22 
     name lfingers
     direction 1 -4.49034e-011 -1.1993e-026   
     length 0.622093   
     axis 7.64668e-015 90 90   XYZ
    dof rx
    limits (0.0 90.0)
  end
  begin
     id 23
     name lthumb
     direction 0.707107 -6.34867e-011 0.707107   
     length 0.893204   
     axis -90 45 -1.62303e-014   XYZ
    dof rx rz
    limits (-45.0 45.0)
           (-45.0 45.0)
  end
  begin
     id 24 
     name rclavicle
     direction -0.93442 0.355634 -0.0195692   
     length 3.62463  
     axis 0 0 0   XYZ 
    dof ry rz
    limits (-10.0 20.0)
           (-20.0 0.0)
  end
  begin
     id 25 
     name rhumerus
     direction -1 -4.48957e-011 -1.19147e-027  
     length 5.14182   
     axis 180 30 90   XYZ
    dof rx ry rz
    limits (-90.0 60.0)
           (-90.0 90.0)
           (-90.0 90.0)
  end
  begin
     id 26 
     name rradius
     direction -1 -4.48952e-011 -3.81062e-027   
     length 3.35565   
     axis 180 30 90   XYZ
    dof rx
    limits (-10.0 170.0)
  end
  begin
     id 27 
     name rwrist
     direction -1 -4.48973e-011 -2.99621e-027   
     length 1.67782   
     axis 1.95339e-015 -90 -90   XYZ
    dof ry
    limits (-180.0 0.0)
  end
  begin
     id 28
     name rhand
     direction -1 -4.48895e-011 -5.98727e-027   
     length 0.801042   
     axis 3.82337e-015 -90 -90   XYZ
    dof rx rz
    limits (-90.0 90.0)
           (-45.0 45.0)
  end
  begin
     id 29
     name rfingers
     direction -1 -4.49065e-011 -1.19972e-026   
     length 0.645821   
     axis 7.64668e-015 -90 -90   XYZ
    dof rx
    limits (0.0 90.0)
  end
  begin
     id 30
     name rthumb
     direction -0.707107 -6.34957e-011 0.707107   
     length 0.927273   
     axis -90 -45 1.62303e-014   XYZ
    dof rx rz
    limits (-45.0 45.0)
           (-45.0 45.0)
  end
:hierarchy
  begin
    root lhipjoint rhipjoint lowerback
    lhipjoint lfemur
    lfemur ltibia
    ltibia lfoot
    lfoot ltoes
    rhipjoint rfemur
    rfemur rtibia
    rtibia rfoot
    rfoot rtoes
    lowerback upperback
    upperback thorax
    thorax lowerneck lclavicle rclavicle
    lowerneck upperneck
    upperneck head
    lclavicle lhumerus
    lhumerus lradius
    lradius lwrist
    lwrist lhand lthumb
    lhand lfingers
    rclavicle rhumerus
    rhumerus rradius
    rradius rwrist
    rwrist rhand rthumb
    rhand rfingers
  end

#!OML:ASF E:\Style4\Style4.ASF
:FULLY-SPECIFIED
:DEGREES
117
root 0.315244 17.75 -1.44703 3.84275 -2.72252 2.158
lowerback 9.17172 2.82256 -1.28295
upperback 3.94675 3.61942 -0.501722
thorax -1.08889 1.79537 -0.158056
lowerneck 0.8187 -4.70424 -6.0355
upperneck -1.50784 -6.29201 5.23532
head -0.235269 -3.15198 2.7096
rclavicle 7.45443e-015 -3.57812e-015
rhumerus -26.5552 57.1273 -86.0293
rradius 112.523
rwrist -37.2822
rhand -30.3959 23.1866
rfingers 7.12502
rthumb -3.6998 -6.76106
lclavicle 7.45443e-015 -3.57812e-015
lhumerus -41.5257 -50.2496 103.349
lradius 111.12
lwrist 41.5053
lhand -10.8694 28.7292
lfingers 7.12502
lthumb 15.1463 58.1549
rfemur -19.4577 3.35867 14.904
rtibia 34.5718
rfoot -17.4796 -12.5848
rtoes -13.5666
lfemur -17.5521 0.467981 -22.0888
ltibia 32.8104
lfoot -19.2395 8.07526
ltoes -12.6541
118
root 0.30879 17.753 -1.45223 3.87364 -2.63318 1.87021
lowerback 9.19628 2.79437 -1.02093
upperback 3.78302 3.60393 -0.426856
thorax -1.26075 1.79016 -0.232029
lowerneck 0.845869 -4.66839 -6.03621
upperneck -1.4208 -6.24774 5.21427
head -0.215829 -3.13025 2.70232
rclavicle 1.45113e-014 -4.96962e-015
rhumerus -25.0582 56.6935 -84.775
rradius 113.357
rwrist -34.9581
rhand -30.71 23.7083
rfingers 7.12502
rthumb -4.00314 -6.23388
lclavicle 1.45113e-014 -4.96962e-015
lhumerus -41.6799 -50.0489 103.207
lradius 111.426
lwrist 41.6812
lhand -10.6786 28.5067
lfingers 7.12502
lthumb 15.3301 57.9185
rfemur -19.3782 3.48197 15.2632
rtibia 34.3385
rfoot -17.2946 -12.8192
rtoes -13.6975
lfemur -17.5391 0.388608 -21.7167
ltibia 32.6457
lfoot -19.1926 7.99487
ltoes -12.0869
119
root 0.30516 17.7602 -1.44923 3.94226 -2.58757 1.76626
lowerback 9.08249 2.74717 -0.985173
upperback 3.62199 3.54647 -0.37619
thorax -1.36577 1.76204 -0.193279
lowerneck 0.802675 -4.59439 -6.1354
upperneck -1.27367 -6.15105 5.23879
head -0.163732 -3.08155 2.72546
rclavicle 4.11484e-014 -1.21259e-014
rhumerus -23.4293 56.2251 -83.456
rradius 114.193
rwrist -32.7754
rhand -31.2895 23.8565
rfingers 7.12502
rthumb -4.56272 -6.07435
lclavicle 4.11484e-014 -1.21259e-014
lhumerus -41.9535 -49.7511 103.118
lradius 111.758
lwrist 41.3463
lhand -10.4378 28.2721
lfingers 7.12502
lthumb 15.562 57.666
rfemur -19.286 3.52472 15.391
rtibia 34.0675
rfoot -17.2645 -12.8364
rtoes -13.3396
lfemur -17.5406 0.331202 -21.575
ltibia 32.5115
lfoot -19.1806 8.03488
ltoes -12.2944
120
root 0.306034 17.7719 -1.44041 3.98727 -2.57996 1.73109
lowerback 9.05047 2.70905 -1.07354
upperback 3.38759 3.48929 -0.297493
thorax -1.60046 1.73352 -0.0631348
lowerneck 0.708279 -4.52414 -6.16468
upperneck -1.0007 -6.0594 5.11545
head -0.0699677 -3.03478 2.68295
rclavicle -1.78906e-015 6.75868e-015
rhumerus -21.9774 55.691 -82.2421
rradius 115.078
rwrist -31.1172
rhand -31.8794 23.9995
rfingers 7.12502
rthumb -5.13224 -5.91838
lclavicle -1.78906e-015 6.75868e-015
lhumerus -42.4139 -49.3721 103.238
lradius 112.068
lwrist 40.9612
lhand -10.3739 27.9915
lfingers 7.12502
lthumb 15.6236 57.3805
rfemur -19.1323 3.53552 15.4227
rtibia 33.7645
rfoot -17.1685 -12.8082
rtoes -13.0494
lfemur -17.4568 0.245536 -21.5452
ltibia 32.3336
lfoot -19.1642 8.26593
ltoes -13.1327
121
root 0.30366 17.7836 -1.43243 4.02563 -2.55849 1.73499
lowerback 9.25191 2.6983 -1.37081
upperback 3.00141 3.44686 -0.139466
thorax -2.13741 1.71332 0.247346
lowerneck 0.727663 -4.47605 -6.15137
upperneck -0.689149 -6.00377 4.85361
head 0.0124442 -3.0073 2.58932
rclavicle 3.25013e-014 2.78299e-015
rhumerus -20.8608 55.0728 -81.2441
rradius 115.914
rwrist -29.9402
rhand -32.3675 24.3678
rfingers 7.12502
rthumb -5.6036 -5.53814
lclavicle 3.25013e-014 2.78299e-015
lhumerus -43.2135 -48.9623 103.816
lradius 112.289
lwrist 40.6935
lhand -10.5496 27.6229
lfingers 7.12502
lthumb 15.4543 57.0251
rfemur -18.9667 3.57061 15.4297
rtibia 33.4432
rfoot -16.9927 -12.8939
rtoes -13.1655
lfemur -17.3276 0.182087 -21.5552
ltibia 32.0719
lfoot -18.9947 8.50492
ltoes -14.1443
122
root 0.301743 17.7947 -1.42315 4.02951 -2.54041 1.76505
lowerback 8.76576 2.67922 -1.17349
upperback 3.09452 3.44439 -0.314554
thorax -1.75122 1.71228 -0.0151705
lowerneck 0.640181 -4.47911 -5.99027
upperneck -0.752771 -6.00002 4.96228
head 0.00579745 -3.00504 2.59466
rclavicle 2.38542e-015 -5.56597e-015
rhumerus -18.6568 53.9177 -79.8352
rradius 116.707
rwrist -29.2236
rhand -32.9359 24.3693
rfingers 7.12502
rthumb -6.15232 -5.5214
lclavicle 2.38542e-015 -5.56597e-015
lhumerus -43.0549 -49.0887 103.358
lradius 112.474
lwrist 40.5544
lhand -10.7091 27.2661
lfingers 7.12502
lthumb 15.3007 56.6801
rfemur -18.7427 3.58972 15.4034
rtibia 33.0956
rfoot -16.9192 -12.8981
rtoes -13.0226
lfemur -17.1167 0.117455 -21.5895
ltibia 31.7495
lfoot -18.8263 8.60865
ltoes -14.421
123
root 0.301019 17.8067 -1.40982 4.00432 -2.53518 1.76042
lowerback 8.49908 2.63867 -1.10961
upperback 3.0441 3.39936 -0.367028
thorax -1.64912 1.69052 -0.0883568
lowerneck 0.592939 -4.4323 -5.97572
upperneck -0.702398 -5.93581 5.05256
head 0.0286247 -2.97295 2.62054
rclavicle -2.95692e-014 3.77691e-015
rhumerus -16.9521 52.9474 -78.7455
rradius 117.646
rwrist -28.9702
rhand -33.4192 24.275
rfingers 7.12502
rthumb -6.61887 -5.60159
lclavicle -2.95692e-014 3.77691e-015
lhumerus -43.2745 -48.9521 103.235
lradius 112.684
lwrist 40.2414
lhand -10.8196 26.9727
lfingers 7.12502
lthumb 15.1943 56.3948
rfemur -18.4614 3.59748 15.4168
rtibia 32.7419
rfoot -16.815 -12.9256
rtoes -13.1658
lfemur -16.8323 0.0581699 -21.5841
ltibia 31.3775
lfoot -18.7184 8.63676
ltoes -14.1315
124
root 0.301113 17.8196 -1.39472 3.97128 -2.5283 1.75726
lowerback 8.36074 2.60793 -1.1092
upperback 2.89769 3.36015 -0.370665
thorax -1.72351 1.67169 -0.0860991
lowerneck 0.544821 -4.40344 -6.00401
upperneck -0.507733 -5.89944 5.07695
head 0.0979004 -2.95487 2.62983
rclavicle -6.09772e-014 9.54166e-015
rhumerus -15.5267 51.8672 -77.8918
rradius 118.37
rwrist -28.5293
rhand -33.7834 24.6588
rfingers 7.12502
rthumb -6.97048 -5.20643
lclavicle -6.09772e-014 9.54166e-015
lhumerus -43.6846 -48.7851 103.256
lradius 112.894
lwrist 39.9486
lhand -10.7426 26.7595
lfingers 7.12502
lthumb 15.2685 56.1759
rfemur -18.1429 3.6968 15.4171
rtibia 32.3701
rfoot -16.7823 -12.9476
rtoes -12.9016
lfemur -16.5005 -0.00944084 -21.5799
ltibia 30.9348
lfoot -18.6714 8.67879
ltoes -13.7909
125
root 0.301546 17.8338 -1.37866 3.95218 -2.5475 1.81316
lowerback 8.09525 2.6238 -1.13179
upperback 2.8093 3.38282 -0.409694
thorax -1.66735 1.68348 -0.105376
lowerneck 0.411781 -4.4104 -6.00457
upperneck -0.275991 -5.90734 5.13842
head 0.196592 -2.95814 2.6432
rclavicle 3.03644e-014 -1.39149e-015
rhumerus -14.0216 50.4812 -77.0504
rradius 118.828
rwrist -27.817
rhand -34.13 25.1888
rfingers 7.12502
rthumb -7.30504 -4.66505
lclavicle 3.03644e-014 -1.39149e-015
lhumerus -43.967 -48.7756 103.208
lradius 113.054
lwrist 39.6188
lhand -10.7954 26.5847
lfingers 7.12502
lthumb 15.2176 56.0051
rfemur -17.8572 3.80359 15.355
rtibia 31.988
rfoot -16.6604 -13.0442
rtoes -13.1306
lfemur -16.1562 -0.0905372 -21.6488
ltibia 30.4534
lfoot -18.5705 8.85939
ltoes -14.2614
126
root 0.30142 17.8496 -1.36254 3.93626 -2.55178 1.92339
lowerback 7.89325 2.64657 -1.14838
upperback 2.67661 3.41266 -0.498499
thorax -1.68844 1.69921 -0.184127
lowerneck 0.278251 -4.44276 -5.92657
upperneck -0.0120106 -5.94976 5.12852
head 0.302653 -2.97852 2.61773
rclavicle -5.51627e-015 6.95746e-015
rhumerus -12.8325 48.9872 -76.5107
rradius 119.304
rwrist -27.3298
rhand -34.3165 25.4991
rfingers 7.12502
rthumb -7.48505 -4.34852
lclavicle -5.51627e-015 6.95746e-015
lhumerus -44.4075 -48.8471 103.258
lradius 113.189
lwrist 39.2558
lhand -10.936 26.2985
lfingers 7.12502
lthumb 15.0821 55.729
rfemur -17.5707 3.84018 15.2378
rtibia 31.5912
rfoot -16.5395 -13.1251
rtoes -13.4129
lfemur -15.7948 -0.263282 -21.7663
ltibia 29.9481
lfoot -18.522 8.95854
ltoes -13.8815
127
root 0.299443 17.8637 -1.34978 3.94669 -2.52713 1.9261
lowerback 7.97384 2.61681 -1.12679
upperback 2.35267 3.36954 -0.550517
thorax -2.06265 1.67916 -0.259564
lowerneck 0.210741 -4.41909 -5.83919
upperneck 0.388194 -5.92449 5.10934
head 0.435673 -2.96596 2.58862
rclavicle -6.11263e-015 -3.77691e-015
rhumerus -12.0518 47.7093 -76.35
rradius 119.811
rwrist -27.0186
rhand -34.4235 25.7505
rfingers 7.12502
rthumb -7.58832 -4.09338
lclavicle -6.11263e-015 -3.77691e-015
lhumerus -45.2196 -48.6875 103.533
lradius 113.367
lwrist 38.9213
lhand -11.025 26.0373
lfingers 7.12502
lthumb 14.9964 55.4743
rfemur -17.3018 3.90414 15.2388
rtibia 31.1857
rfoot -16.4541 -13.1626
rtoes -12.9887
lfemur -15.4758 -0.405261 -21.7516
ltibia 29.4342
lfoot -18.4013 8.97852
ltoes -13.2767
128
root 0.297356 17.8764 -1.33561 3.93683 -2.5232 1.87425
lowerback 7.99207 2.57096 -1.10911
upperback 2.07328 3.3077 -0.546089
thorax -2.36016 1.64933 -0.268293
lowerneck 0.208586 -4.34991 -5.85144
upperneck 0.669161 -5.83957 5.14336
head 0.521493 -2.92408 2.59989
rclavicle -3.54831e-014 -1.98785e-016
rhumerus -11.2066 46.5994 -76.1182
rradius 120.278
rwrist -26.6679
rhand -34.6069 25.9677
rfingers 7.12502
rthumb -7.76537 -3.86966
lclavicle -3.54831e-014 -1.98785e-016
lhumerus -45.9254 -48.3828 103.733
lradius 113.54
lwrist 38.7535
lhand -11.0418 25.746
lfingers 7.12502
lthumb 14.9802 55.1842
rfemur -17.0044 3.99963 15.3148
rtibia 30.7653
rfoot -16.2645 -13.2793
rtoes -13.1424
lfemur -15.1218 -0.499789 -21.6805
ltibia 28.913
lfoot -18.2763 9.00158
ltoes -12.8325
129
root 0.296193 17.8904 -1.31975 3.91126 -2.54531 1.87511
lowerback 7.7539 2.56503 -1.06745
upperback 1.95586 3.30552 -0.587415
thorax -2.34459 1.64862 -0.325657
lowerneck 0.206868 -4.3267 -5.69128
upperneck 0.788768 -5.81068 5.05175
head 0.549338 -2.90957 2.53914
rclavicle 8.79622e-015 -6.36111e-015
rhumerus -10.2242 45.3684 -75.7854
rradius 120.628
rwrist -26.2999
rhand -34.8138 26.1627
rfingers 7.12502
rthumb -7.9651 -3.6672
lclavicle 8.79622e-015 -6.36111e-015
lhumerus -46.3302 -48.2618 103.738
lradius 113.631
lwrist 38.595
lhand -11.1272 25.5023
lfingers 7.12502
lthumb 14.898 54.9466
rfemur -16.6935 4.07096 15.3232
rtibia 30.3357
rfoot -16.0881 -13.3435
rtoes -13.4641
lfemur -14.7462 -0.566623 -21.6828
ltibia 28.4079
lfoot -18.1512 9.10515
ltoes -12.7272
